# xmcd
#
# Track frame offsets: 
#        150
#        22255
#        41023
#        57583
#        72679
#        95911
#        133766
#        160374
#        171958
#        189182
#        220638
#
# Disc length: 3374 seconds
#
# Revision: 0
# Processed by: cddbd v1.5.1PL2 Copyright (c) Steve Scherf et al.
# Submitted via: ExactAudioCopy v0.95a5
#
DISCID=ab0d2c0b
DTITLE=Mike Bader - Clearcut Case of the Blues
DYEAR=2004
DGENRE=Blues
TTITLE0=Power Shaft Blues
TTITLE1=Auf Wiedersehen Baby
TTITLE2=Don't Want to Know
TTITLE3=Octavio
TTITLE4=Four Times the Pain
TTITLE5=Clearcut Case of the Blues
TTITLE6=Never Too Late
TTITLE7=Shufflin' in A
TTITLE8=Here I Am Now
TTITLE9=Funky ED
TTITLE10=Any Kinda Day
EXTD=
EXTT0=
EXTT1=
EXTT2=
EXTT3=
EXTT4=
EXTT5=
EXTT6=
EXTT7=
EXTT8=
EXTT9=
EXTT10=
PLAYORDER=
